<?xml version="1.0" encoding="UTF-8" standalone="no"?>
<!DOCTYPE svg PUBLIC "-//W3C//DTD SVG 1.1//EN" "http://www.w3.org/Graphics/SVG/1.1/DTD/svg11.dtd">
<svg width="456" height="456" viewBox="0 0 456 456" fill="none" xmlns="http://www.w3.org/2000/svg">
	<path fill-rule="evenodd" clip-rule="evenodd" d="M130.929 130.929C134.834 127.024 141.166 127.024 145.071 130.929L173 158.858L200.929 130.929C204.834 127.024 211.166 127.024 215.071 130.929C218.976 134.834 218.976 141.166 215.071 145.071L187.142 173L215.071 200.929C218.976 204.834 218.976 211.166 215.071 215.071C211.166 218.976 204.834 218.976 200.929 215.071L173 187.142L145.071 215.071C141.166 218.976 134.834 218.976 130.929 215.071C127.024 211.166 127.024 204.834 130.929 200.929L158.858 173L130.929 145.071C127.024 141.166 127.024 134.834 130.929 130.929ZM283 148C269.193 148 258 159.193 258 173C258 186.807 269.193 198 283 198C296.807 198 308 186.807 308 173C308 159.193 296.807 148 283 148ZM238 173C238 148.147 258.147 128 283 128C307.853 128 328 148.147 328 173C328 197.853 307.853 218 283 218C258.147 218 238 197.853 238 173ZM173 258C159.193 258 148 269.193 148 283C148 296.807 159.193 308 173 308C186.807 308 198 296.807 198 283C198 269.193 186.807 258 173 258ZM128 283C128 258.147 148.147 238 173 238C197.853 238 218 258.147 218 283C218 307.853 197.853 328 173 328C148.147 328 128 307.853 128 283ZM240.929 240.929C244.834 237.024 251.166 237.024 255.071 240.929L283 268.858L310.929 240.929C314.834 237.024 321.166 237.024 325.071 240.929C328.976 244.834 328.976 251.166 325.071 255.071L297.142 283L325.071 310.929C328.976 314.834 328.976 321.166 325.071 325.071C321.166 328.976 314.834 328.976 310.929 325.071L283 297.142L255.071 325.071C251.166 328.976 244.834 328.976 240.929 325.071C237.024 321.166 237.024 314.834 240.929 310.929L268.858 283L240.929 255.071C237.024 251.166 237.024 244.834 240.929 240.929Z" fill="white"/>
</svg>